<?xml version="1.0" encoding="UTF-8"?>
<svg width="18px" height="18px" viewBox="0 0 18 18" version="1.1" xmlns="http://www.w3.org/2000/svg" xmlns:xlink="http://www.w3.org/1999/xlink">
    <!-- Generator: Sketch 54.1 (76490) - https://sketchapp.com -->
    <title>close</title>
    <desc>Created with Sketch.</desc>
    <g id="Page-1" stroke="none" stroke-width="1" fill="none" fill-rule="evenodd" opacity="0.5">
        <g id="Binarycent-Giveaway-popup" transform="translate(-810.000000, -19.000000)" fill="#FFFFFF" fill-rule="nonzero" stroke="#FFFFFF">
            <g id="close" transform="translate(811.000000, 20.000000)">
                <path d="M15.8107187,0.18930478 C15.5583123,-0.0631015933 15.1490933,-0.0631015933 14.896687,0.18930478 L0.18930478,14.8966557 C-0.0631015933,15.1490621 -0.0631015933,15.558281 0.18930478,15.8106874 C0.315492342,15.9369375 0.480929922,16 0.646336253,16 C0.811742584,16 0.977148915,15.9369062 1.10336773,15.8106562 L15.8107187,1.10330523 C16.0630938,0.850930103 16.0630938,0.441711153 15.8107187,0.18930478 Z" id="Path"></path>
                <path d="M15.8107144,14.8966557 L1.10330711,0.18930478 C0.850931557,-0.0631015933 0.441680658,-0.0631015933 0.189305103,0.18930478 C-0.0631017011,0.441679903 -0.0631017011,0.850898853 0.189305103,1.10330523 L14.8967124,15.8106874 C15.0229002,15.9369062 15.1883381,16 15.3537447,16 C15.5191513,16 15.6845892,15.9369062 15.8107457,15.8107187 C16.06309,15.558281 16.06309,15.1490621 15.8107144,14.8966557 Z" id="Path"></path>
            </g>
        </g>
    </g>
</svg>